<svg width="111" height="21" viewBox="0 0 111 21" fill="none" xmlns="http://www.w3.org/2000/svg">
<path d="M12.9521 13.2461C12.9521 15.4974 12.4867 17.2282 11.5557 18.4385C10.6247 19.6488 9.31283 20.2539 7.62012 20.2539C6.22363 20.2539 5.09798 19.6995 4.24316 18.5908L4.06543 20H0.231445V0.5H4.50977V7.36816C5.30534 6.46257 6.33366 6.00977 7.59473 6.00977C9.30436 6.00977 10.6247 6.62337 11.5557 7.85059C12.4867 9.0778 12.9521 10.8044 12.9521 13.0303V13.2461ZM8.66113 12.9795C8.66113 11.6592 8.4834 10.7197 8.12793 10.1611C7.78092 9.59408 7.24349 9.31055 6.51562 9.31055C5.55078 9.31055 4.88216 9.67871 4.50977 10.415V15.874C4.8737 16.6019 5.55078 16.9658 6.54102 16.9658C7.54818 16.9658 8.18717 16.4749 8.45801 15.4932C8.59342 15.0107 8.66113 14.1729 8.66113 12.9795ZM22.5879 20C22.4355 19.7207 22.3001 19.3102 22.1816 18.7686C21.3945 19.7588 20.2943 20.2539 18.8809 20.2539C17.5859 20.2539 16.4857 19.8646 15.5801 19.0859C14.6745 18.2988 14.2217 17.3128 14.2217 16.1279C14.2217 14.6383 14.7718 13.5127 15.8721 12.751C16.9723 11.9893 18.5719 11.6084 20.6709 11.6084H21.9912V10.8848C21.9912 9.6237 21.4453 8.99316 20.3535 8.99316C19.3379 8.99316 18.8301 9.49251 18.8301 10.4912H14.5518C14.5518 9.16243 15.1146 8.08333 16.2402 7.25391C17.3743 6.42448 18.8174 6.00977 20.5693 6.00977C22.3213 6.00977 23.7051 6.43717 24.7207 7.29199C25.7363 8.14681 26.2568 9.31901 26.2822 10.8086V16.8896C26.2992 18.1507 26.4938 19.1156 26.8662 19.7842V20H22.5879ZM19.9092 17.207C20.4424 17.207 20.8825 17.0928 21.2295 16.8643C21.585 16.6357 21.8389 16.3776 21.9912 16.0898V13.8936H20.7471C19.2575 13.8936 18.5127 14.5622 18.5127 15.8994C18.5127 16.2887 18.6439 16.6061 18.9062 16.8516C19.1686 17.0885 19.5029 17.207 19.9092 17.207ZM32.5918 6.26367L32.7314 7.87598C33.6794 6.63184 34.987 6.00977 36.6543 6.00977C38.0846 6.00977 39.151 6.43717 39.8535 7.29199C40.5645 8.14681 40.9326 9.43327 40.958 11.1514V20H36.667V11.3291C36.667 10.6351 36.5273 10.1273 36.248 9.80566C35.9688 9.47559 35.4609 9.31055 34.7246 9.31055C33.8867 9.31055 33.2646 9.64062 32.8584 10.3008V20H28.5801V6.26367H32.5918ZM42.7988 13.0303C42.7988 10.8551 43.2686 9.14128 44.208 7.88867C45.1475 6.63607 46.4593 6.00977 48.1436 6.00977C49.3708 6.00977 50.4033 6.49219 51.2412 7.45703V0.5H55.5322V20H51.6855L51.4697 18.5273C50.5895 19.6784 49.4723 20.2539 48.1182 20.2539C46.4847 20.2539 45.1898 19.6276 44.2334 18.375C43.277 17.1224 42.7988 15.3408 42.7988 13.0303ZM47.0771 13.2969C47.0771 15.7344 47.7881 16.9531 49.21 16.9531C50.1579 16.9531 50.835 16.5553 51.2412 15.7598V10.5293C50.8519 9.7168 50.1833 9.31055 49.2354 9.31055C47.915 9.31055 47.1999 10.377 47.0898 12.5098L47.0771 13.2969ZM63.7715 16.9531C64.3724 16.9531 64.8379 16.7923 65.168 16.4707C65.498 16.1406 65.6589 15.6836 65.6504 15.0996H69.6621C69.6621 16.6061 69.1204 17.8418 68.0371 18.8066C66.9622 19.7715 65.5742 20.2539 63.873 20.2539C61.8757 20.2539 60.3014 19.6276 59.1504 18.375C57.9993 17.1224 57.4238 15.3874 57.4238 13.1699V12.9922C57.4238 11.6042 57.6777 10.3812 58.1855 9.32324C58.7018 8.25684 59.4424 7.4401 60.4072 6.87305C61.3721 6.29753 62.5146 6.00977 63.835 6.00977C65.6208 6.00977 67.0384 6.50488 68.0879 7.49512C69.1374 8.48535 69.6621 9.82682 69.6621 11.5195H65.6504C65.6504 10.8086 65.4769 10.2627 65.1299 9.88184C64.7829 9.50098 64.3174 9.31055 63.7334 9.31055C62.6247 9.31055 61.9772 10.0173 61.791 11.4307C61.7318 11.8792 61.7021 12.4971 61.7021 13.2842C61.7021 14.6637 61.8672 15.6201 62.1973 16.1533C62.5273 16.6865 63.0521 16.9531 63.7715 16.9531ZM79.7803 10.1357L78.3711 10.0342C77.0254 10.0342 76.1621 10.4574 75.7812 11.3037V20H71.5029V6.26367H75.5146L75.6543 8.02832C76.3737 6.68262 77.3766 6.00977 78.6631 6.00977C79.1201 6.00977 79.5179 6.06055 79.8564 6.16211L79.7803 10.1357ZM89.5049 18.5146C88.5993 19.6742 87.3763 20.2539 85.8359 20.2539C84.3294 20.2539 83.1868 19.818 82.4082 18.9463C81.638 18.0661 81.2529 16.805 81.2529 15.1631V6.26367H85.5312V15.1885C85.5312 16.3649 86.1025 16.9531 87.2451 16.9531C88.2269 16.9531 88.9251 16.6019 89.3398 15.8994V6.26367H93.6436V20H89.6318L89.5049 18.5146ZM100.512 20H96.2207V6.26367H100.512V20ZM95.9668 2.72168C95.9668 2.1123 96.1868 1.61296 96.627 1.22363C97.0671 0.83431 97.6383 0.639648 98.3408 0.639648C99.0433 0.639648 99.6146 0.83431 100.055 1.22363C100.495 1.61296 100.715 2.1123 100.715 2.72168C100.715 3.33105 100.495 3.8304 100.055 4.21973C99.6146 4.60905 99.0433 4.80371 98.3408 4.80371C97.6383 4.80371 97.0671 4.60905 96.627 4.21973C96.1868 3.8304 95.9668 3.33105 95.9668 2.72168ZM108.142 2.84863V6.26367H110.401V9.23438H108.142V15.5186C108.142 16.0348 108.235 16.3945 108.421 16.5977C108.607 16.8008 108.975 16.9023 109.525 16.9023C109.949 16.9023 110.304 16.877 110.592 16.8262V19.8857C109.822 20.1312 109.018 20.2539 108.18 20.2539C106.707 20.2539 105.619 19.9069 104.917 19.2129C104.215 18.5189 103.863 17.4652 103.863 16.0518V9.23438H102.111V6.26367H103.863V2.84863H108.142Z" fill="#37447E"/>
</svg>
