<svg width="119" height="38" viewBox="0 0 119 38" fill="none" xmlns="http://www.w3.org/2000/svg">
<path d="M7.24902 9.51562L11.375 22.376L15.4883 9.51562H21.3535V28H16.8848V23.6836L17.3164 14.8477L12.8477 28H9.90234L5.4209 14.835L5.85254 23.6836V28H1.39648V9.51562H7.24902ZM30.6465 28.2539C28.5391 28.2539 26.8337 27.6276 25.5303 26.375C24.2269 25.1139 23.5752 23.4762 23.5752 21.4619V21.1064C23.5752 19.7015 23.8333 18.4616 24.3496 17.3867C24.8743 16.3118 25.6361 15.4824 26.6348 14.8984C27.6335 14.306 28.8184 14.0098 30.1895 14.0098C32.1191 14.0098 33.6426 14.6107 34.7598 15.8125C35.877 17.0059 36.4355 18.6732 36.4355 20.8145V22.4775H27.9297C28.082 23.2477 28.4163 23.8529 28.9326 24.293C29.4489 24.7331 30.1175 24.9531 30.9385 24.9531C32.2926 24.9531 33.3506 24.4792 34.1123 23.5312L36.0674 25.8418C35.5342 26.5781 34.7767 27.1663 33.7949 27.6064C32.8216 28.0381 31.7721 28.2539 30.6465 28.2539ZM30.1641 17.3105C28.9115 17.3105 28.1667 18.14 27.9297 19.7988H32.2461V19.4688C32.263 18.7832 32.0895 18.2542 31.7256 17.8818C31.3617 17.501 30.8411 17.3105 30.1641 17.3105ZM43.1514 10.8486V14.2637H45.4111V17.2344H43.1514V23.5186C43.1514 24.0348 43.2445 24.3945 43.4307 24.5977C43.6169 24.8008 43.985 24.9023 44.5352 24.9023C44.9583 24.9023 45.3138 24.877 45.6016 24.8262V27.8857C44.8314 28.1312 44.0273 28.2539 43.1895 28.2539C41.7168 28.2539 40.6292 27.9069 39.9268 27.2129C39.2243 26.5189 38.873 25.4652 38.873 24.0518V17.2344H37.1211V14.2637H38.873V10.8486H43.1514ZM54.8438 28C54.6914 27.7207 54.556 27.3102 54.4375 26.7686C53.6504 27.7588 52.5501 28.2539 51.1367 28.2539C49.8418 28.2539 48.7415 27.8646 47.8359 27.0859C46.9303 26.2988 46.4775 25.3128 46.4775 24.1279C46.4775 22.6383 47.0277 21.5127 48.1279 20.751C49.2282 19.9893 50.8278 19.6084 52.9268 19.6084H54.2471V18.8848C54.2471 17.6237 53.7012 16.9932 52.6094 16.9932C51.5938 16.9932 51.0859 17.4925 51.0859 18.4912H46.8076C46.8076 17.1624 47.3704 16.0833 48.4961 15.2539C49.6302 14.4245 51.0732 14.0098 52.8252 14.0098C54.5771 14.0098 55.9609 14.4372 56.9766 15.292C57.9922 16.1468 58.5127 17.319 58.5381 18.8086V24.8896C58.555 26.1507 58.7497 27.1156 59.1221 27.7842V28H54.8438ZM52.165 25.207C52.6982 25.207 53.1383 25.0928 53.4854 24.8643C53.8408 24.6357 54.0947 24.3776 54.2471 24.0898V21.8936H53.0029C51.5133 21.8936 50.7686 22.5622 50.7686 23.8994C50.7686 24.2887 50.8997 24.6061 51.1621 24.8516C51.4245 25.0885 51.7588 25.207 52.165 25.207ZM61.1152 28V9.51562H67.7549C70.1331 9.51562 71.9401 9.9515 73.1758 10.8232C74.4199 11.695 75.042 12.9603 75.042 14.6191C75.042 15.5755 74.8219 16.3923 74.3818 17.0693C73.9417 17.7464 73.2943 18.2458 72.4395 18.5674C73.4043 18.8213 74.1449 19.2952 74.6611 19.9893C75.1774 20.6833 75.4355 21.5296 75.4355 22.5283C75.4355 24.3395 74.86 25.7021 73.709 26.6162C72.5664 27.5218 70.8695 27.9831 68.6182 28H61.1152ZM65.5713 20.1416V24.5723H68.4912C69.2952 24.5723 69.9131 24.3903 70.3447 24.0264C70.7764 23.654 70.9922 23.1335 70.9922 22.4648C70.9922 20.9245 70.2262 20.1501 68.6943 20.1416H65.5713ZM65.5713 17.2217H67.8945C68.8678 17.2132 69.5618 17.0355 69.9766 16.6885C70.3913 16.3415 70.5986 15.8294 70.5986 15.1523C70.5986 14.3737 70.3743 13.8151 69.9258 13.4766C69.4772 13.1296 68.7536 12.9561 67.7549 12.9561H65.5713V17.2217ZM85.4395 28C85.2871 27.7207 85.1517 27.3102 85.0332 26.7686C84.2461 27.7588 83.1458 28.2539 81.7324 28.2539C80.4375 28.2539 79.3372 27.8646 78.4316 27.0859C77.526 26.2988 77.0732 25.3128 77.0732 24.1279C77.0732 22.6383 77.6234 21.5127 78.7236 20.751C79.8239 19.9893 81.4235 19.6084 83.5225 19.6084H84.8428V18.8848C84.8428 17.6237 84.2969 16.9932 83.2051 16.9932C82.1895 16.9932 81.6816 17.4925 81.6816 18.4912H77.4033C77.4033 17.1624 77.9661 16.0833 79.0918 15.2539C80.2259 14.4245 81.6689 14.0098 83.4209 14.0098C85.1729 14.0098 86.5566 14.4372 87.5723 15.292C88.5879 16.1468 89.1084 17.319 89.1338 18.8086V24.8896C89.1507 26.1507 89.3454 27.1156 89.7178 27.7842V28H85.4395ZM82.7607 25.207C83.2939 25.207 83.734 25.0928 84.0811 24.8643C84.4365 24.6357 84.6904 24.3776 84.8428 24.0898V21.8936H83.5986C82.109 21.8936 81.3643 22.5622 81.3643 23.8994C81.3643 24.2887 81.4954 24.6061 81.7578 24.8516C82.0202 25.0885 82.3545 25.207 82.7607 25.207ZM95.4434 14.2637L95.583 15.876C96.5309 14.6318 97.8385 14.0098 99.5059 14.0098C100.936 14.0098 102.003 14.4372 102.705 15.292C103.416 16.1468 103.784 17.4333 103.81 19.1514V28H99.5186V19.3291C99.5186 18.6351 99.3789 18.1273 99.0996 17.8057C98.8203 17.4756 98.3125 17.3105 97.5762 17.3105C96.7383 17.3105 96.1162 17.6406 95.71 18.3008V28H91.4316V14.2637H95.4434ZM105.65 21.0303C105.65 18.8551 106.12 17.1413 107.06 15.8887C107.999 14.6361 109.311 14.0098 110.995 14.0098C112.222 14.0098 113.255 14.4922 114.093 15.457V8.5H118.384V28H114.537L114.321 26.5273C113.441 27.6784 112.324 28.2539 110.97 28.2539C109.336 28.2539 108.041 27.6276 107.085 26.375C106.129 25.1224 105.65 23.3408 105.65 21.0303ZM109.929 21.2969C109.929 23.7344 110.64 24.9531 112.062 24.9531C113.009 24.9531 113.687 24.5553 114.093 23.7598V18.5293C113.703 17.7168 113.035 17.3105 112.087 17.3105C110.767 17.3105 110.051 18.377 109.941 20.5098L109.929 21.2969Z" fill="#37447E"/>
</svg>
