<svg width="28" height="28" viewBox="0 0 28 28" fill="none" xmlns="http://www.w3.org/2000/svg">
<path d="M10.5625 23.332C11.6797 23.332 12.625 22.4297 12.625 21.2695V6.14453C12.625 5.02734 11.6797 4.08203 10.5625 4.08203H6.4375C5.27734 4.08203 4.375 5.02734 4.375 6.14453V21.2695C4.375 22.4297 5.27734 23.332 6.4375 23.332H10.5625ZM23.625 21.2695V6.14453C23.625 5.02734 22.6797 4.08203 21.5625 4.08203H17.4375C16.2773 4.08203 15.375 5.02734 15.375 6.14453V21.2695C15.375 22.4297 16.2773 23.332 17.4375 23.332H21.5625C22.6797 23.332 23.625 22.4297 23.625 21.2695Z" fill="black"/>
</svg>
