<svg width="32" height="32" viewBox="0 0 32 32" fill="none" xmlns="http://www.w3.org/2000/svg">
<path d="M12.5625 25.332C13.6797 25.332 14.625 24.4297 14.625 23.2695V8.14453C14.625 7.02734 13.6797 6.08203 12.5625 6.08203H8.4375C7.27734 6.08203 6.375 7.02734 6.375 8.14453V23.2695C6.375 24.4297 7.27734 25.332 8.4375 25.332H12.5625ZM25.625 23.2695V8.14453C25.625 7.02734 24.6797 6.08203 23.5625 6.08203H19.4375C18.2773 6.08203 17.375 7.02734 17.375 8.14453V23.2695C17.375 24.4297 18.2773 25.332 19.4375 25.332H23.5625C24.6797 25.332 25.625 24.4297 25.625 23.2695Z" fill="black"/>
</svg>
