<svg width="28" height="28" viewBox="0 0 28 28" fill="none" xmlns="http://www.w3.org/2000/svg">
<path d="M21.7812 19.8438L18.6562 16.7188C18.5 16.5938 18.3125 16.5 18.125 16.5H17.625C18.4688 15.4062 19 14.0312 19 12.5C19 8.9375 16.0625 6 12.5 6C8.90625 6 6 8.9375 6 12.5C6 16.0938 8.90625 19 12.5 19C14 19 15.375 18.5 16.5 17.625V18.1562C16.5 18.3438 16.5625 18.5312 16.7188 18.6875L19.8125 21.7812C20.125 22.0938 20.5938 22.0938 20.875 21.7812L21.75 20.9062C22.0625 20.625 22.0625 20.1562 21.7812 19.8438ZM12.5 16.5C10.2812 16.5 8.5 14.7188 8.5 12.5C8.5 10.3125 10.2812 8.5 12.5 8.5C14.6875 8.5 16.5 10.3125 16.5 12.5C16.5 14.7188 14.6875 16.5 12.5 16.5Z" fill="#BDBDBD"/>
</svg>
